<?xml version="1.0" encoding="UTF-8" standalone="no"?>
<!-- Created with Inkscape (http://www.inkscape.org/) -->

<svg
   xmlns:dc="http://purl.org/dc/elements/1.1/"
   xmlns:cc="http://creativecommons.org/ns#"
   xmlns:rdf="http://www.w3.org/1999/02/22-rdf-syntax-ns#"
   xmlns:svg="http://www.w3.org/2000/svg"
   xmlns="http://www.w3.org/2000/svg"
   xmlns:sodipodi="http://sodipodi.sourceforge.net/DTD/sodipodi-0.dtd"
   xmlns:inkscape="http://www.inkscape.org/namespaces/inkscape"
   version="1.0"
   width="250"
   height="40.1702"
   id="svg3767"
   sodipodi:docname="kapsch-inv.svg"
   inkscape:version="0.92.3 (2405546, 2018-03-11)">
  <metadata
     id="metadata3773">
    <rdf:RDF>
      <cc:Work
         rdf:about="">
        <dc:format>image/svg+xml</dc:format>
        <dc:type
           rdf:resource="http://purl.org/dc/dcmitype/StillImage" />
        <dc:title></dc:title>
      </cc:Work>
    </rdf:RDF>
  </metadata>
  <defs
     id="defs3771" />
  <sodipodi:namedview
     pagecolor="#ffffff"
     bordercolor="#666666"
     borderopacity="1"
     objecttolerance="10"
     gridtolerance="10"
     guidetolerance="10"
     inkscape:pageopacity="0"
     inkscape:pageshadow="2"
     inkscape:window-width="3440"
     inkscape:window-height="1380"
     id="namedview3769"
     showgrid="false"
     inkscape:zoom="13.044"
     inkscape:cx="112.84882"
     inkscape:cy="20.0851"
     inkscape:window-x="0"
     inkscape:window-y="27"
     inkscape:window-maximized="1"
     inkscape:current-layer="svg3767" />
  <path
     d="M 248.411,7.54422 L 233.38,-0.0001 L 231.558,4.29065 L 243.622,9.92865 L 225.973,17.4501 L 223.791,22.5947 L 247.204,12.3681 C 250.319,11.0071 250.988,8.83649 248.411,7.54422 M 16.4966,7.20359 L 10.6539,7.20359 L -0.0004425,33.5637 L 5.84225,33.5637 L 8.57494,26.8106 L 10.6019,25.4022 L 10.8433,25.4022 L 18.1111,33.5637 L 26.2924,33.5637 L 15.5006,22.6695 L 15.5678,22.4969 L 34.935,11.6028 L 26.7552,11.6028 L 11.2374,20.7785 L 10.9976,20.7785 L 16.4966,7.20359 z M 53.4773,11.6089 L 41.792,11.6089 C 41.792,11.6089 35.9493,11.6089 34.1789,16.0081 L 51.707,16.0081 L 49.9198,20.3905 L 38.2344,20.3905 C 32.3917,20.3905 30.6214,24.7897 30.6214,24.7897 L 28.8525,29.1889 C 28.8525,29.1889 27.0134,33.5713 32.908,33.5713 L 50.4361,33.5713 L 57.5496,16.0081 C 57.5496,16.0081 59.32,11.6089 53.4773,11.6089 M 34.6952,29.1889 L 36.464,24.7897 L 48.1494,24.7897 L 46.3806,29.1889 L 34.6952,29.1889 M 82.4326,11.6089 L 64.9046,11.6089 L 53.3567,40.1701 L 59.1993,40.1701 L 61.8633,33.5713 L 73.5487,33.5713 C 73.5487,33.5713 79.3914,33.5713 81.1617,29.1889 L 86.4881,16.0081 C 86.4881,16.0081 88.2753,11.6089 82.4326,11.6089 M 63.6322,29.1889 L 68.9601,16.0081 L 80.6454,16.0081 L 75.3175,29.1889 L 63.6322,29.1889 M 110.1,11.6089 L 98.4149,11.6089 C 98.4149,11.6089 92.5722,11.6089 90.8018,16.0081 L 89.0146,20.3905 C 89.0146,20.3905 87.2458,24.7897 93.0885,24.7897 L 104.772,24.7897 L 103.003,29.1889 L 85.4754,29.1889 C 85.4754,29.1889 83.705,33.5713 89.5477,33.5713 L 101.233,33.5713 C 107.076,33.5713 108.846,29.1889 108.846,29.1889 L 110.615,24.7897 C 112.402,20.3905 106.559,20.3905 106.559,20.3905 L 94.8573,20.3905 L 96.6445,16.0081 L 114.173,16.0081 C 114.173,16.0081 115.995,11.6089 110.1,11.6089 M 137.973,11.6089 L 126.287,11.6089 C 126.287,11.6089 120.444,11.6089 118.674,16.0081 L 113.348,29.1889 C 113.348,29.1889 111.561,33.5713 117.403,33.5713 L 129.089,33.5713 C 129.089,33.5713 134.931,33.5713 136.718,29.1889 L 137.595,26.9893 L 131.753,26.9893 L 130.876,29.1889 L 119.19,29.1889 L 124.517,16.0081 L 136.185,16.0081 L 135.309,18.2077 L 141.151,18.2077 L 142.045,16.0081 C 142.045,16.0081 143.867,11.6089 137.973,11.6089 M 156.223,7.2097 L 150.38,7.2097 L 139.726,33.5713 L 145.569,33.5713 L 152.666,16.0081 L 164.351,16.0081 L 157.254,33.5713 L 163.097,33.5713 L 170.194,16.0081 C 170.194,16.0081 172.033,11.6089 166.138,11.6089 L 154.453,11.6089 L 156.223,7.2097"
     style="fill:#ffffff;fill-opacity:1;fill-rule:nonzero;stroke:none;stroke-width:1;stroke-linecap:butt;stroke-linejoin:miter;marker:none;marker-start:none;marker-mid:none;marker-end:none;stroke-miterlimit:4;stroke-dasharray:none;stroke-dashoffset:0;stroke-opacity:1;visibility:visible;display:inline;overflow:visible;enable-background:accumulate"
     id="path3763" />
  <path
     d="M 202.386,7.54422 L 187.355,-0.0001 L 185.531,4.29065 L 197.595,9.92865 L 179.947,17.4501 L 177.764,22.5947 L 201.177,12.3681 C 204.29,11.0071 204.961,8.83649 202.386,7.54422 M 225.401,7.54422 L 210.37,-0.0001 L 208.548,4.29065 L 220.612,9.92865 L 202.963,17.4501 L 200.78,22.5947 L 224.194,12.3681 C 227.308,11.0071 227.977,8.83649 225.401,7.54422"
     style="fill:#f9b10d;fill-opacity:1;fill-rule:nonzero;stroke:none"
     id="path3765" />
</svg>
